<svg viewBox="0 0 400 220" xmlns="http://www.w3.org/2000/svg" font-family="'Segoe UI', system-ui, sans-serif">
  <rect x="3" y="3" width="394" height="214" rx="14" fill="#ffffff" stroke="#e2e8f0" stroke-width="2"/>
  <line x1="50" y1="160" x2="350" y2="160" stroke="#334155" stroke-width="2.5" stroke-linecap="round"/>
  <line x1="200" y1="160" x2="286" y2="37" stroke="#334155" stroke-width="2.5" stroke-linecap="round"/>
  <line x1="200" y1="160" x2="315" y2="64" stroke="#334155" stroke-width="2.5" stroke-linecap="round"/>
  <path d="M 158 160 A 42 42 0 0 0 224 126" fill="none" stroke="#6366f1" stroke-width="2.5"/>
  <path d="M 260 160 A 60 60 0 0 0 246 121" fill="none" stroke="#f59e0b" stroke-width="2.5"/>
  <circle cx="50" cy="160" r="4" fill="#334155"/>
  <circle cx="200" cy="160" r="4.5" fill="#334155"/>
  <circle cx="350" cy="160" r="4" fill="#334155"/>
  <circle cx="286" cy="37" r="4" fill="#334155"/>
  <circle cx="315" cy="64" r="4" fill="#334155"/>
  <text x="40" y="152" font-size="16" font-weight="700" fill="#334155">A</text>
  <text x="196" y="184" font-size="16" font-weight="700" fill="#334155">O</text>
  <text x="356" y="152" font-size="16" font-weight="700" fill="#334155">B</text>
  <text x="290" y="34" font-size="16" font-weight="700" fill="#334155">C</text>
  <text x="322" y="62" font-size="16" font-weight="700" fill="#334155">D</text>
  <text x="112" y="118" font-size="15" font-weight="700" fill="#6366f1">125°</text>
  <text x="252" y="140" font-size="15" font-weight="700" fill="#f59e0b">40°</text>
</svg>
