<svg viewBox="0 0 400 220" xmlns="http://www.w3.org/2000/svg" font-family="'Segoe UI', system-ui, sans-serif">
  <rect x="3" y="3" width="394" height="214" rx="14" fill="#ffffff" stroke="#e2e8f0" stroke-width="2"/>
  <line x1="50" y1="160" x2="350" y2="160" stroke="#334155" stroke-width="2.5" stroke-linecap="round"/>
  <line x1="200" y1="160" x2="141" y2="33" stroke="#334155" stroke-width="2.5" stroke-linecap="round"/>
  <line x1="200" y1="160" x2="315" y2="80" stroke="#334155" stroke-width="2.5" stroke-linecap="round"/>
  <path d="M 158 160 A 42 42 0 0 0 182 122" fill="none" stroke="#6366f1" stroke-width="2.5"/>
  <path d="M 255 160 A 55 55 0 0 0 245 128" fill="none" stroke="#f59e0b" stroke-width="2.5"/>
  <circle cx="50" cy="160" r="4" fill="#334155"/>
  <circle cx="200" cy="160" r="4.5" fill="#334155"/>
  <circle cx="350" cy="160" r="4" fill="#334155"/>
  <circle cx="141" cy="33" r="4" fill="#334155"/>
  <circle cx="315" cy="80" r="4" fill="#334155"/>
  <text x="40" y="152" font-size="16" font-weight="700" fill="#334155">P</text>
  <text x="196" y="184" font-size="16" font-weight="700" fill="#334155">O</text>
  <text x="356" y="152" font-size="16" font-weight="700" fill="#334155">Q</text>
  <text x="126" y="30" font-size="16" font-weight="700" fill="#334155">R</text>
  <text x="322" y="78" font-size="16" font-weight="700" fill="#334155">S</text>
  <text x="150" y="120" font-size="15" font-weight="700" fill="#6366f1">65°</text>
  <text x="258" y="142" font-size="15" font-weight="700" fill="#f59e0b">35°</text>
</svg>
